<?xml version="1.0" encoding="UTF-8" standalone="no"?>
<!DOCTYPE svg PUBLIC "-//W3C//DTD SVG 1.1//EN"
 "http://www.w3.org/Graphics/SVG/1.1/DTD/svg11.dtd">
<!-- Generated by graphviz version 2.38.0 (20140413.2041)
 -->
<!-- Title: snakemake_dag Pages: 1 -->
<svg width="174pt" height="476pt"
 viewBox="0.00 0.00 173.50 476.00" xmlns="http://www.w3.org/2000/svg" xmlns:xlink="http://www.w3.org/1999/xlink">
<g id="graph0" class="graph" transform="scale(1 1) rotate(0) translate(4 472)">
<title>snakemake_dag</title>
<polygon fill="white" stroke="none" points="-4,4 -4,-472 169.5,-472 169.5,4 -4,4"/>
<!-- 0 -->
<g id="node1" class="node"><title>0</title>
<path fill="none" stroke="#d89556" stroke-width="2" stroke-dasharray="5,2" d="M68,-252C68,-252 18,-252 18,-252 12,-252 6,-246 6,-240 6,-240 6,-228 6,-228 6,-222 12,-216 18,-216 18,-216 68,-216 68,-216 74,-216 80,-222 80,-228 80,-228 80,-240 80,-240 80,-246 74,-252 68,-252"/>
<text text-anchor="middle" x="43" y="-231.5" font-family="sans" font-size="10.00">sequenceID</text>
</g>
<!-- 2 -->
<g id="node3" class="node"><title>2</title>
<path fill="none" stroke="#56d8d8" stroke-width="2" stroke-dasharray="5,2" d="M74,-180C74,-180 12,-180 12,-180 6,-180 0,-174 0,-168 0,-168 0,-156 0,-156 0,-150 6,-144 12,-144 12,-144 74,-144 74,-144 80,-144 86,-150 86,-156 86,-156 86,-168 86,-168 86,-174 80,-180 74,-180"/>
<text text-anchor="middle" x="43" y="-159.5" font-family="sans" font-size="10.00">sequenceDeel</text>
</g>
<!-- 0&#45;&gt;2 -->
<g id="edge2" class="edge"><title>0&#45;&gt;2</title>
<path fill="none" stroke="grey" stroke-width="2" d="M43,-215.697C43,-207.983 43,-198.712 43,-190.112"/>
<polygon fill="grey" stroke="grey" stroke-width="2" points="46.5001,-190.104 43,-180.104 39.5001,-190.104 46.5001,-190.104"/>
</g>
<!-- 1 -->
<g id="node2" class="node"><title>1</title>
<path fill="none" stroke="#569ad8" stroke-width="2" stroke-dasharray="5,2" d="M107.5,-468C107.5,-468 72.5,-468 72.5,-468 66.5,-468 60.5,-462 60.5,-456 60.5,-456 60.5,-444 60.5,-444 60.5,-438 66.5,-432 72.5,-432 72.5,-432 107.5,-432 107.5,-432 113.5,-432 119.5,-438 119.5,-444 119.5,-444 119.5,-456 119.5,-456 119.5,-462 113.5,-468 107.5,-468"/>
<text text-anchor="middle" x="90" y="-447.5" font-family="sans" font-size="10.00">isolation</text>
</g>
<!-- 6 -->
<g id="node7" class="node"><title>6</title>
<path fill="none" stroke="#59d856" stroke-width="2" stroke-dasharray="5,2" d="M105,-396C105,-396 75,-396 75,-396 69,-396 63,-390 63,-384 63,-384 63,-372 63,-372 63,-366 69,-360 75,-360 75,-360 105,-360 105,-360 111,-360 117,-366 117,-372 117,-372 117,-384 117,-384 117,-390 111,-396 105,-396"/>
<text text-anchor="middle" x="90" y="-375.5" font-family="sans" font-size="10.00">search</text>
</g>
<!-- 1&#45;&gt;6 -->
<g id="edge8" class="edge"><title>1&#45;&gt;6</title>
<path fill="none" stroke="grey" stroke-width="2" d="M90,-431.697C90,-423.983 90,-414.712 90,-406.112"/>
<polygon fill="grey" stroke="grey" stroke-width="2" points="93.5001,-406.104 90,-396.104 86.5001,-406.104 93.5001,-406.104"/>
</g>
<!-- 5 -->
<g id="node6" class="node"><title>5</title>
<path fill="none" stroke="#d6d856" stroke-width="2" d="M92,-36C92,-36 62,-36 62,-36 56,-36 50,-30 50,-24 50,-24 50,-12 50,-12 50,-6 56,-0 62,-0 62,-0 92,-0 92,-0 98,-0 104,-6 104,-12 104,-12 104,-24 104,-24 104,-30 98,-36 92,-36"/>
<text text-anchor="middle" x="77" y="-15.5" font-family="sans" font-size="10.00">all</text>
</g>
<!-- 2&#45;&gt;5 -->
<g id="edge6" class="edge"><title>2&#45;&gt;5</title>
<path fill="none" stroke="grey" stroke-width="2" d="M39.4683,-143.831C36.4309,-125.577 33.5954,-96.0794 41,-72 44.0089,-62.2153 49.507,-52.6161 55.3157,-44.3336"/>
<polygon fill="grey" stroke="grey" stroke-width="2" points="58.1948,-46.3279 61.3901,-36.2264 52.5928,-42.1306 58.1948,-46.3279"/>
</g>
<!-- 7 -->
<g id="node8" class="node"><title>7</title>
<path fill="none" stroke="#56d89a" stroke-width="2" stroke-dasharray="5,2" d="M92,-108C92,-108 62,-108 62,-108 56,-108 50,-102 50,-96 50,-96 50,-84 50,-84 50,-78 56,-72 62,-72 62,-72 92,-72 92,-72 98,-72 104,-78 104,-84 104,-84 104,-96 104,-96 104,-102 98,-108 92,-108"/>
<text text-anchor="middle" x="77" y="-87.5" font-family="sans" font-size="10.00">GCperc</text>
</g>
<!-- 2&#45;&gt;7 -->
<g id="edge9" class="edge"><title>2&#45;&gt;7</title>
<path fill="none" stroke="grey" stroke-width="2" d="M51.4045,-143.697C55.2748,-135.728 59.9517,-126.1 64.2431,-117.264"/>
<polygon fill="grey" stroke="grey" stroke-width="2" points="67.4714,-118.629 68.6922,-108.104 61.1748,-115.57 67.4714,-118.629"/>
</g>
<!-- 3 -->
<g id="node4" class="node"><title>3</title>
<path fill="none" stroke="#d85656" stroke-width="2" stroke-dasharray="5,2" d="M76.5,-324C76.5,-324 37.5,-324 37.5,-324 31.5,-324 25.5,-318 25.5,-312 25.5,-312 25.5,-300 25.5,-300 25.5,-294 31.5,-288 37.5,-288 37.5,-288 76.5,-288 76.5,-288 82.5,-288 88.5,-294 88.5,-300 88.5,-300 88.5,-312 88.5,-312 88.5,-318 82.5,-324 76.5,-324"/>
<text text-anchor="middle" x="57" y="-303.5" font-family="sans" font-size="10.00">sequence</text>
</g>
<!-- 3&#45;&gt;0 -->
<g id="edge1" class="edge"><title>3&#45;&gt;0</title>
<path fill="none" stroke="grey" stroke-width="2" d="M53.5393,-287.697C51.9965,-279.983 50.1425,-270.712 48.4225,-262.112"/>
<polygon fill="grey" stroke="grey" stroke-width="2" points="51.8141,-261.224 46.4209,-252.104 44.9501,-262.597 51.8141,-261.224"/>
</g>
<!-- 4 -->
<g id="node5" class="node"><title>4</title>
<path fill="none" stroke="#97d856" stroke-width="2" stroke-dasharray="5,2" d="M153.5,-252C153.5,-252 110.5,-252 110.5,-252 104.5,-252 98.5,-246 98.5,-240 98.5,-240 98.5,-228 98.5,-228 98.5,-222 104.5,-216 110.5,-216 110.5,-216 153.5,-216 153.5,-216 159.5,-216 165.5,-222 165.5,-228 165.5,-228 165.5,-240 165.5,-240 165.5,-246 159.5,-252 153.5,-252"/>
<text text-anchor="middle" x="132" y="-231.5" font-family="sans" font-size="10.00">pubmedID</text>
</g>
<!-- 4&#45;&gt;5 -->
<g id="edge5" class="edge"><title>4&#45;&gt;5</title>
<path fill="none" stroke="grey" stroke-width="2" d="M132.598,-215.93C133.088,-185.842 131.593,-121.84 113,-72 109.422,-62.4088 103.764,-52.8639 97.9838,-44.5717"/>
<polygon fill="grey" stroke="grey" stroke-width="2" points="100.743,-42.4159 91.9982,-36.4343 95.1042,-46.5637 100.743,-42.4159"/>
</g>
<!-- 6&#45;&gt;3 -->
<g id="edge3" class="edge"><title>6&#45;&gt;3</title>
<path fill="none" stroke="grey" stroke-width="2" d="M81.8427,-359.697C78.0862,-351.728 73.5469,-342.1 69.3817,-333.264"/>
<polygon fill="grey" stroke="grey" stroke-width="2" points="72.4936,-331.657 65.0635,-324.104 66.1619,-334.642 72.4936,-331.657"/>
</g>
<!-- 6&#45;&gt;4 -->
<g id="edge4" class="edge"><title>6&#45;&gt;4</title>
<path fill="none" stroke="grey" stroke-width="2" d="M95.0662,-359.871C102.256,-335.564 115.49,-290.819 124.01,-262.013"/>
<polygon fill="grey" stroke="grey" stroke-width="2" points="127.436,-262.771 126.916,-252.189 120.723,-260.786 127.436,-262.771"/>
</g>
<!-- 7&#45;&gt;5 -->
<g id="edge7" class="edge"><title>7&#45;&gt;5</title>
<path fill="none" stroke="grey" stroke-width="2" d="M77,-71.6966C77,-63.9827 77,-54.7125 77,-46.1124"/>
<polygon fill="grey" stroke="grey" stroke-width="2" points="80.5001,-46.1043 77,-36.1043 73.5001,-46.1044 80.5001,-46.1043"/>
</g>
</g>
</svg>
